<svg width="901" height="939" viewBox="0 0 901 939" fill="none" xmlns="http://www.w3.org/2000/svg">
<path d="M585.786 683.132H436.704M293.586 504.156H521.915M65.4297 182.579V225.847C65.4297 234.888 68.9267 243.559 75.1513 249.952C81.376 256.345 89.8185 259.937 98.6215 259.937H565.314V148.504H98.6215C94.2628 148.5 89.9462 149.378 85.9184 151.089C81.8906 152.8 78.2307 155.31 75.148 158.474C72.0653 161.639 69.6202 165.397 67.9527 169.533C66.2851 173.669 65.4278 178.102 65.4297 182.579ZM565.314 34.1047V358.692H702.21V137.902L633.762 34.1047H565.314Z" stroke="url(#paint0_linear_17_7)" stroke-width="5" stroke-miterlimit="10" stroke-linecap="round" stroke-linejoin="round"/>
<path d="M293.585 607.953V420.689H843.25C843.25 420.689 826.661 607.953 673.162 607.953H293.585ZM293.585 607.953H236.875C121.375 607.953 65.4297 455.55 65.4297 455.55H293.585M220.994 815.547H735.387V889.687H220.994V815.547Z" stroke="#2D2D2D" stroke-width="5" stroke-miterlimit="10" stroke-linecap="round" stroke-linejoin="round"/>
<path d="M293.585 610.222C346.571 610.222 389.523 659.214 389.523 713.633C389.523 768.052 346.571 816.763 293.585 816.763M681.723 610.222C628.738 610.222 585.786 659.214 585.786 713.633C585.786 768.052 628.738 816.763 681.723 816.763" stroke="#2D2D2D" stroke-width="5" stroke-miterlimit="10" stroke-linecap="round" stroke-linejoin="round"/>
<path d="M503.969 367.738L467.875 330.667M763.844 367.738L799.938 330.667M482.312 148.281V252.078" stroke="#FF0300" stroke-width="2" stroke-miterlimit="10" stroke-linecap="round" stroke-linejoin="round"/>
<defs>
<linearGradient id="paint0_linear_17_7" x1="162" y1="53.5" x2="737" y2="487.5" gradientUnits="userSpaceOnUse">
<stop stop-color="#2979FF"/>
<stop offset="0.328125" stop-color="#FF85D5"/>
<stop offset="0.671875" stop-color="#9370DB"/>
<stop offset="1" stop-color="#EAFFC2"/>
</linearGradient>
</defs>
</svg>
